# xmcd CD database file
#
# Track frame offsets:
#	150
#	17988
#	24853
#	30097
#	49758
#	81388
#	91744
#	104693
#	135096
#	157540
#	164230
#	177643
#	180229
#	191482
#	209797
#	227649
#	265277
#	279237
#	287483
#
# Disc length: 3972 seconds
#
# Revision: 0
# Processed by: cddbd v1.5.1PL2 Copyright (c) Steve Scherf et al.
# Submitted via: CDex 1.51
#
DISCID=f50f8213
DTITLE=Güttler, Wolfgang - The World of the Geatles
DYEAR=2000
DGENRE=Jazz
TTITLE0=Eleanor Rigby
TTITLE1=Pomp and Circumstances
TTITLE2=Ob-La-Di Ob-La-Da
TTITLE3=Ein Paukenschlag
TTITLE4=Carmen Fantasie
TTITLE5=Carmen Ouverture
TTITLE6=La Traviata
TTITLE7=Die Reise des Herbert....von Berlin nach Casablanca
TTITLE8=Valse triste
TTITLE9=Michelle
TTITLE10=Potpourri
TTITLE11=When I´m Sixty-Four
TTITLE12=Yesterday
TTITLE13=Forelle-Variationen
TTITLE14=Air
TTITLE15=Bolero
TTITLE16=Arabischer Tanz
TTITLE17=In the Mood
TTITLE18=The Girl from Ipanema
EXTD=YEAR: 2000
EXTT0=
EXTT1=
EXTT2=
EXTT3=
EXTT4=
EXTT5=
EXTT6=
EXTT7=
EXTT8=
EXTT9=
EXTT10=
EXTT11=
EXTT12=
EXTT13=
EXTT14=
EXTT15=
EXTT16=
EXTT17=
EXTT18=
PLAYORDER=
